<svg xmlns="http://www.w3.org/2000/svg" class="svg-logo" width="2400" height="2400" viewBox="0 0 630 430" style="height: auto;"><rect width="630" height="630" y="-100" rx="0" ry="0" fill="transparent" fill-opacity="0"></rect><g data-element="wrapper" transform="translate(47.24669265746766 -27.65001983642854) scale(0.8500000000000096)"><g data-element="container" transform="translate(249.24657283417164 153.36422346716057) scale(0.2191780821917808)"><g ><path id="fill_x5F_1" d="M482.606,104.843h98.834v341.315L300,592.003L18.56,446.158V104.843h98.834V7.997h365.211
	C482.837,8.157,482.606,104.843,482.606,104.843z" fill="transparent" fill-opacity="0"></path>
<path id="frame_x5F_1_1_" d="M489.909,0H110.091v98.834H11.257v352.979L300,600l288.743-148.187V98.707h-98.834V0L489.909,0z
	 M476.014,111.972l96.857,0.969V442.53L300,582.518L27.129,442.53V112.94h96.857V16.083l352.027,0.969V111.972z" fill="#ffffff" fill-opacity="1"></path></g></g><g ><g data-element="icon" transform="scale(0.13333333333333333) translate(2062.5 1343.3818192481995)"><path id="color_x5F_2_12_" d="M389.566,498.934c-57.824,0-89.567,32.685-89.567,32.685s-31.741-32.685-89.567-32.685    c-57.826,0-68.305,26.398-127.648,26.398v47.771c66.366,0,79.469-28.913,125.223-28.913c45.754,0,91.993,45.255,91.993,45.255    s46.24-45.255,91.995-45.255c45.752,0,58.855,28.913,125.222,28.913v-47.771C457.872,525.332,447.394,498.934,389.566,498.934z" fill="#ffffff" fill-opacity="1"></path> <path id="color_x5F_1_55_" d="M584.17,378.881l-50.34-116.719c24.578-4.178,39.301-28.9,33.93-51.73    c-15.086,20.742-32.057,43.37-58.455,11.314c-26.398-32.056-49.026-88.624-94.281-96.167c-45.256-7.542-99.939,37.712-99.939,37.712    s1.887-29.98,5.658-38.561c3.771-8.58,20.742-25.551,15.084-55.721C330.17,38.841,300,10.556,300,10.556    s-30.17,28.285-35.828,58.455c-5.657,30.17,11.314,47.141,15.084,55.721c3.772,8.581,5.657,38.561,5.657,38.561    s-54.682-45.255-99.938-37.712c-45.255,7.543-67.883,64.111-94.281,96.167c-26.399,32.056-43.37,9.428-58.455-11.314    c-5.371,22.828,9.349,47.55,33.927,51.73L15.829,378.881H0c0,0,0,57.01,82.814,57.01c82.816,0,82.754-57.01,82.754-57.01h-15.829    L97.215,257.096c0.965-0.452,1.931-0.898,2.909-1.409c43.369-22.627,52.797-61.621,96.166-61.923    c43.369-0.302,84.854,39.296,88.624,84.551c0,0-32.055,0-32.055,22.628c0,22.627,32.055,22.627,32.055,22.627    s-30.169,77.311-30.169,107.481c0,30.169,45.255,81.081,45.255,81.081s45.254-50.912,45.254-81.081    c0-30.171-30.171-107.481-30.171-107.481s32.057,0,32.057-22.627c0-22.628-32.057-22.628-32.057-22.628    c3.772-45.255,45.256-84.853,88.626-84.551c43.368,0.302,52.797,39.296,96.167,61.923c0.976,0.51,1.941,0.956,2.906,1.407    L450.26,378.881h-15.828c0,0-0.062,57.01,82.753,57.01S600,378.881,600,378.881H584.17z M39.351,378.881l43.433-100.707    l43.434,100.707H39.351z M473.779,378.881l43.435-100.707l43.434,100.707H473.779z" fill="#ffffff" fill-opacity="1"></path></g><path d="M108.33 311.31L108.33 311.31Q99.18 311.31 99.18 328.95L99.18 328.95L99.18 333.61Q99.18 341.99 101.60 346.74Q104.02 351.49 108.74 351.49L108.74 351.49Q115.23 351.49 120.66 338.86L120.66 338.86L121.72 338.86L121.31 352.02L120.66 352.02Q120.31 351.37 120.01 351.10Q119.72 350.84 119.15 350.84Q118.59 350.84 114.88 351.75Q111.16 352.67 107.33 352.67L107.33 352.67Q97.71 352.67 92.43 347.47Q87.15 342.28 87.15 331.87Q87.15 321.46 92.66 315.79Q98.18 310.13 107.50 310.13L107.50 310.13Q111.10 310.13 114.55 311.04Q118.00 311.96 118.59 311.96Q119.18 311.96 119.48 311.69Q119.77 311.43 120.13 310.78L120.13 310.78L120.78 310.78L121.25 323.58L120.19 323.58Q117.53 317.62 114.73 314.46Q111.93 311.31 108.33 311.31ZM167.56 330.72L167.56 330.72Q167.56 342.87 160.72 347.65L160.72 347.65Q154.41 352.08 143.37 352.08L143.37 352.08L126.68 352.08L126.68 350.96L130.57 350.96L130.57 311.90L126.68 311.90L126.68 310.78L144.91 310.78Q156.24 310.78 161.90 315.41Q167.56 320.04 167.56 330.72ZM142.08 311.90L142.08 350.96L144.32 350.96Q150.28 350.96 152.84 346.74Q155.41 342.52 155.41 332.61L155.41 332.61L155.41 329.18Q155.41 315.91 150.34 313.20L150.34 313.20Q147.92 311.90 143.49 311.90L143.49 311.90L142.08 311.90ZM185.38 339.51Q185.38 344.94 187.24 347.83Q189.10 350.72 193.94 350.72Q198.78 350.72 201.37 347.71Q203.97 344.70 203.97 338.57L203.97 338.57L203.97 311.90L200.13 311.90L200.13 310.78L208.75 310.78L208.75 311.90L205.50 311.90L205.50 338.15Q205.50 345.47 202.26 349.07Q199.01 352.67 190.78 352.67Q182.55 352.67 178.21 349.24Q173.88 345.82 173.88 337.50L173.88 337.50L173.88 311.90L170.63 311.90L170.63 310.78L189.22 310.78L189.22 311.90L185.38 311.90L185.38 339.51ZM238.72 332.37L238.72 334.32L226.27 334.32L226.27 346.65L224.03 346.65L224.03 334.32L211.93 334.32L211.93 332.37L224.03 332.37L224.03 320.81L226.27 320.81L226.27 332.37L238.72 332.37ZM241.85 311.90L241.85 310.78L259.19 310.78Q268.10 310.78 272.47 313.34Q276.83 315.91 276.83 322.52L276.83 322.52Q276.83 329.83 271.52 332.61L271.52 332.61Q266.57 335.14 257.66 335.14L257.66 335.14L257.19 335.14L257.19 350.96L264.56 350.96L264.56 352.08L241.85 352.08L241.85 350.96L245.68 350.96L245.68 311.90L241.85 311.90ZM258.78 311.90L257.19 311.90L257.19 334.02L258.42 334.02Q261.96 334.02 263.32 331.60Q264.68 329.18 264.68 323.76L264.68 323.76L264.68 320.92Q264.68 315.91 263.41 313.90Q262.14 311.90 258.78 311.90L258.78 311.90ZM293.18 350.96L297.36 350.96L293.06 338.21L281.38 338.21L276.83 350.96L281.26 350.96L281.26 352.08L272.23 352.08L272.23 350.96L275.00 350.96L290.05 310.42L294.89 310.42L309.75 350.96L312.47 350.96L312.47 352.08L293.18 352.08L293.18 350.96ZM292.59 336.91L287.45 321.46L281.91 336.91L292.59 336.91ZM332.17 331.19L332.17 331.19L329.05 331.19L329.05 350.96L332.88 350.96L332.88 352.08L313.71 352.08L313.71 350.96L317.54 350.96L317.54 311.90L313.71 311.90L313.71 310.78L331.53 310.78Q339.20 310.78 342.41 311.57Q345.63 312.37 346.92 313.49L346.92 313.49Q349.76 315.79 349.76 320.81Q349.76 325.82 347.28 327.98Q344.80 330.13 339.73 330.54L339.73 330.54L339.73 330.72Q344.51 331.37 346.39 333.55Q348.28 335.73 348.28 340.87L348.28 340.87L348.28 343.99Q348.28 347.06 348.61 348.12Q348.93 349.19 349.99 349.19Q351.05 349.19 351.67 348.21Q352.29 347.24 352.82 344.11L352.82 344.11L353.83 344.23Q353.18 349.24 351.56 350.96Q349.93 352.67 345.10 352.67Q340.26 352.67 338.22 350.40Q336.19 348.12 336.19 341.87L336.19 341.87L336.19 337.56Q336.19 334.26 335.33 332.72Q334.48 331.19 332.17 331.19ZM330.99 311.90L329.05 311.90L329.05 330.07L330.94 330.07Q334.30 330.07 335.92 328.00Q337.54 325.94 337.54 321.28L337.54 321.28L337.54 319.57Q337.54 314.91 335.98 313.40Q334.42 311.90 330.99 311.90L330.99 311.90ZM354.83 310.78L389.64 310.78L390.23 325.59L389.11 325.59Q386.51 317.74 384.51 314.88Q382.50 312.02 378.73 312.02L378.73 312.02L378.02 312.02L378.02 350.84L383.03 350.84L383.03 352.08L361.50 352.08L361.50 350.84L366.51 350.84L366.51 312.02L365.75 312.02Q361.97 312.02 359.90 315.00Q357.84 317.97 355.36 325.59L355.36 325.59L354.24 325.59L354.83 310.78ZM430.47 311.90L427.22 311.90L427.22 352.08L418.96 352.08L398.73 313.90L398.73 350.96L401.97 350.96L401.97 352.08L393.89 352.08L393.89 350.96L397.13 350.96L397.13 311.90L393.89 311.90L393.89 310.78L410.17 310.78L425.63 340.39L425.63 311.90L422.39 311.90L422.39 310.78L430.47 310.78L430.47 311.90ZM433.18 312.07L433.18 310.78L463.86 310.78L464.45 322.46L463.39 322.46Q460.91 316.50 458.20 314.29Q455.48 312.07 450.23 312.07L450.23 312.07L448.17 312.07L448.17 330.31L450.17 330.31Q452.95 330.31 454.84 328.21Q456.72 326.12 457.49 322.58L457.49 322.58L458.38 322.58L458.38 340.04L457.37 340.04Q456.31 335.62 454.51 333.73Q452.71 331.84 449.58 331.84L449.58 331.84L448.17 331.84L448.17 350.78L450.41 350.78Q455.84 350.78 459.64 347.53Q463.45 344.29 464.87 339.21L464.87 339.21L466.05 339.21L465.57 352.08L433.18 352.08L433.18 350.78L436.66 350.78L436.66 312.07L433.18 312.07ZM488.11 331.19L488.11 331.19L484.98 331.19L484.98 350.96L488.82 350.96L488.82 352.08L469.64 352.08L469.64 350.96L473.48 350.96L473.48 311.90L469.64 311.90L469.64 310.78L487.46 310.78Q495.13 310.78 498.35 311.57Q501.56 312.37 502.86 313.49L502.86 313.49Q505.69 315.79 505.69 320.81Q505.69 325.82 503.22 327.98Q500.74 330.13 495.66 330.54L495.66 330.54L495.66 330.72Q500.44 331.37 502.33 333.55Q504.22 335.73 504.22 340.87L504.22 340.87L504.22 343.99Q504.22 347.06 504.54 348.12Q504.87 349.19 505.93 349.19Q506.99 349.19 507.61 348.21Q508.23 347.24 508.76 344.11L508.76 344.11L509.76 344.23Q509.12 349.24 507.49 350.96Q505.87 352.67 501.03 352.67Q496.19 352.67 494.16 350.40Q492.12 348.12 492.12 341.87L492.12 341.87L492.12 337.56Q492.12 334.26 491.27 332.72Q490.41 331.19 488.11 331.19ZM486.93 311.90L484.98 311.90L484.98 330.07L486.87 330.07Q490.24 330.07 491.86 328.00Q493.48 325.94 493.48 321.28L493.48 321.28L493.48 319.57Q493.48 314.91 491.92 313.40Q490.35 311.90 486.93 311.90L486.93 311.90ZM529.00 351.43L529.00 351.43Q531.95 351.43 534.22 349.83Q536.49 348.24 536.49 345.03Q536.49 341.81 534.04 340.10Q531.59 338.39 527.08 337.12Q522.57 335.85 520.53 334.91Q518.50 333.96 516.67 332.43L516.67 332.43Q513.01 329.36 513.01 322.93L513.01 322.93Q513.01 317.68 516.76 313.90Q520.50 310.13 526.99 310.13L526.99 310.13Q530.12 310.13 533.51 311.04Q536.90 311.96 537.73 311.96Q538.56 311.96 539.21 310.78L539.21 310.78L539.85 310.78L540.27 322.69L539.32 322.69Q536.49 317.56 533.39 314.46Q530.30 311.37 526.67 311.37Q523.04 311.37 521.03 313.05Q519.03 314.73 519.03 317.53Q519.03 320.33 521.42 321.84Q523.81 323.34 527.29 324.29Q530.77 325.23 531.86 325.59Q532.95 325.94 534.57 326.56Q536.20 327.18 537.23 327.86Q538.26 328.54 539.41 329.57Q540.56 330.60 541.21 331.84L541.21 331.84Q542.80 334.67 542.80 338.57L542.80 338.57Q542.80 344.94 538.82 348.80Q534.84 352.67 528.35 352.67L528.35 352.67Q524.99 352.67 520.65 351.78Q516.31 350.90 515.84 350.90L515.84 350.90Q515.02 350.90 514.25 352.67L514.25 352.67L513.42 352.67L512.83 338.62L513.84 338.62Q516.43 343.76 520.47 347.59Q524.51 351.43 529.00 351.43Z" data-element="company-name" data-text-path="" data-text="CDU+PARTNERS" data-font-family="Abril Fatface" fill="#ffffff" fill-opacity="1"></path><path d="M258.75 408.24L242.13 408.24L242.13 406.94L242.52 406.94Q243.05 406.94 243.51 406.86Q243.97 406.79 244.32 406.55Q244.67 406.32 244.87 405.88Q245.06 405.44 245.06 404.71L245.06 404.71L245.06 389.64Q245.06 388.91 244.87 388.47Q244.67 388.03 244.32 387.80Q243.97 387.56 243.51 387.49Q243.05 387.41 242.52 387.41L242.52 387.41L242.13 387.41L242.13 386.11L251.15 386.11L251.15 387.41L250.74 387.41Q250.22 387.41 249.76 387.48Q249.30 387.55 248.95 387.77Q248.60 388.00 248.40 388.42Q248.20 388.83 248.20 389.51L248.20 389.51L248.20 406.69L254.31 406.69Q255.01 406.69 255.50 406.45Q255.99 406.20 256.31 405.79Q256.63 405.39 256.80 404.89Q256.97 404.39 257.04 403.89L257.04 403.89L257.34 401.58L258.96 401.58L258.75 408.24ZM273.17 400.84L265.03 400.84L263.85 404.09Q263.71 404.45 263.63 404.81Q263.56 405.17 263.56 405.42L263.56 405.42Q263.56 406.21 264.06 406.57Q264.57 406.94 265.62 406.94L265.62 406.94L266.33 406.94L266.33 408.24L258.76 408.24L258.76 406.94L259.35 406.94Q259.80 406.94 260.12 406.84Q260.44 406.74 260.70 406.47Q260.95 406.20 261.19 405.73Q261.42 405.26 261.71 404.52L261.71 404.52L268.58 386.11L271.00 386.11L278.01 405.29Q278.19 405.77 278.38 406.09Q278.57 406.41 278.83 406.60Q279.09 406.79 279.42 406.86Q279.75 406.94 280.21 406.94L280.21 406.94L280.62 406.94L280.62 408.24L272.09 408.24L272.09 406.94L272.81 406.94Q274.67 406.94 274.67 405.45L274.67 405.45Q274.67 405.20 274.60 404.92Q274.53 404.65 274.41 404.30L274.41 404.30L273.17 400.84ZM272.61 399.28L270.69 393.86Q270.20 392.48 269.80 391.28Q269.40 390.07 269.14 388.95L269.14 388.95Q269.04 389.51 268.89 390.04Q268.75 390.56 268.58 391.10Q268.42 391.65 268.20 392.25Q267.99 392.84 267.72 393.57L267.72 393.57L265.62 399.28L272.61 399.28ZM292.57 386.32L294.81 386.32L298.69 399.75Q299.13 401.29 299.47 402.71Q299.81 404.12 300.02 405.20L300.02 405.20Q300.25 404.08 300.54 402.84Q300.84 401.61 301.26 400.11L301.26 400.11L303.99 390.54Q304.03 390.36 304.09 390.14Q304.15 389.91 304.20 389.68Q304.24 389.45 304.28 389.26Q304.32 389.06 304.32 388.92L304.32 388.92Q304.32 388.12 303.81 387.77Q303.31 387.41 302.28 387.41L302.28 387.41L301.56 387.41L301.56 386.11L309.13 386.11L309.13 387.41L308.54 387.41Q308.09 387.41 307.75 387.50Q307.41 387.59 307.13 387.85Q306.86 388.11 306.64 388.58Q306.41 389.05 306.18 389.82L306.18 389.82L300.94 408.24L298.16 408.24L293.10 390.88L288.37 408.24L285.50 408.24L279.83 389.05Q279.68 388.56 279.49 388.24Q279.30 387.93 279.04 387.74Q278.78 387.56 278.44 387.49Q278.09 387.41 277.63 387.41L277.63 387.41L277.22 387.41L277.22 386.11L285.76 386.11L285.76 387.41L285.05 387.41Q284.11 387.41 283.65 387.77Q283.19 388.12 283.19 388.89L283.19 388.89Q283.19 389.15 283.26 389.42Q283.34 389.70 283.43 390.04L283.43 390.04L286.28 399.96Q286.67 401.37 287.02 402.72Q287.37 404.08 287.62 405.20L287.62 405.20Q287.85 403.99 288.16 402.55Q288.47 401.12 288.88 399.63L288.88 399.63L292.57 386.32ZM326.79 387.65L321.71 387.65L321.71 396.61L329.19 396.61L329.19 398.13L321.71 398.13L321.71 404.71Q321.71 405.44 321.91 405.88Q322.12 406.32 322.46 406.55Q322.80 406.79 323.27 406.86Q323.74 406.94 324.25 406.94L324.25 406.94L325.28 406.94L325.28 408.24L315.64 408.24L315.64 406.94L316.03 406.94Q316.55 406.94 317.01 406.87Q317.47 406.80 317.82 406.59Q318.17 406.38 318.37 405.96Q318.58 405.54 318.58 404.86L318.58 404.86L318.58 389.51Q318.58 388.83 318.37 388.42Q318.17 388.00 317.82 387.77Q317.47 387.55 317.01 387.48Q316.55 387.41 316.03 387.41L316.03 387.41L315.64 387.41L315.64 386.11L331.26 386.11L331.41 391.53L329.81 391.53L329.66 390.20Q329.59 389.67 329.41 389.20Q329.23 388.74 328.89 388.40Q328.55 388.06 328.04 387.86Q327.52 387.65 326.79 387.65L326.79 387.65ZM341.45 408.24L332.42 408.24L332.42 406.94L332.82 406.94Q333.35 406.94 333.81 406.86Q334.27 406.79 334.62 406.55Q334.97 406.32 335.16 405.88Q335.36 405.44 335.36 404.71L335.36 404.71L335.36 389.64Q335.36 388.91 335.16 388.47Q334.97 388.03 334.62 387.80Q334.27 387.56 333.81 387.49Q333.35 387.41 332.82 387.41L332.82 387.41L332.42 387.41L332.42 386.11L341.45 386.11L341.45 387.41L341.04 387.41Q340.52 387.41 340.05 387.49Q339.58 387.56 339.24 387.80Q338.90 388.03 338.70 388.47Q338.49 388.91 338.49 389.64L338.49 389.64L338.49 404.71Q338.49 405.44 338.70 405.88Q338.90 406.32 339.24 406.55Q339.58 406.79 340.05 406.86Q340.52 406.94 341.04 406.94L341.04 406.94L341.45 406.94L341.45 408.24ZM354.05 397.73L358.31 404.45Q359.09 405.70 359.83 406.32Q360.58 406.94 361.56 406.94L361.56 406.94L361.65 406.94L361.65 408.24L361.21 408.24Q359.76 408.24 358.83 408.13Q357.90 408.03 357.25 407.72Q356.60 407.42 356.13 406.88Q355.67 406.33 355.14 405.45L355.14 405.45L350.95 398.48L348.38 398.48L348.38 404.86Q348.38 405.54 348.58 405.96Q348.79 406.38 349.13 406.59Q349.48 406.80 349.94 406.87Q350.40 406.94 350.92 406.94L350.92 406.94L351.33 406.94L351.33 408.24L342.31 408.24L342.31 406.94L342.70 406.94Q343.21 406.94 343.68 406.87Q344.14 406.80 344.49 406.59Q344.83 406.38 345.04 405.96Q345.24 405.54 345.24 404.86L345.24 404.86L345.24 389.51Q345.24 388.83 345.04 388.42Q344.83 388.00 344.49 387.77Q344.14 387.55 343.68 387.48Q343.21 387.41 342.70 387.41L342.70 387.41L342.31 387.41L342.31 386.11L350.65 386.11Q354.67 386.11 356.64 387.60Q358.61 389.09 358.61 392.09L358.61 392.09Q358.61 393.33 358.21 394.26Q357.81 395.19 357.16 395.87Q356.50 396.55 355.69 397.01Q354.87 397.46 354.05 397.73L354.05 397.73ZM348.38 387.59L348.38 397.02L350.56 397.02Q351.92 397.02 352.83 396.72Q353.73 396.42 354.28 395.81Q354.82 395.21 355.06 394.30Q355.29 393.39 355.29 392.18L355.29 392.18Q355.29 390.94 355.04 390.07Q354.78 389.20 354.20 388.64Q353.63 388.09 352.71 387.84Q351.80 387.59 350.48 387.59L350.48 387.59L348.38 387.59ZM387.85 408.24L379.60 408.24L379.60 406.94L379.71 406.94Q380.21 406.94 380.61 406.87Q381.01 406.80 381.29 406.60Q381.57 406.39 381.74 406.01Q381.90 405.62 381.93 404.98L381.93 404.98L381.93 388.42L374.83 408.24L373.15 408.24L365.96 388.49L365.96 404.71Q365.96 405.44 366.12 405.88Q366.27 406.32 366.56 406.55Q366.86 406.79 367.27 406.86Q367.69 406.94 368.20 406.94L368.20 406.94L368.29 406.94L368.29 408.24L361.14 408.24L361.14 406.94L361.53 406.94Q362.04 406.94 362.51 406.87Q362.97 406.80 363.31 406.59Q363.66 406.38 363.87 405.96Q364.07 405.54 364.07 404.86L364.07 404.86L364.07 389.51Q364.07 388.83 363.87 388.42Q363.66 388.00 363.31 387.77Q362.97 387.55 362.51 387.48Q362.04 387.41 361.53 387.41L361.53 387.41L361.14 387.41L361.14 386.11L368.20 386.11L374.62 403.83L380.98 386.11L387.85 386.11L387.85 387.41L387.46 387.41Q386.93 387.41 386.47 387.49Q386.00 387.56 385.66 387.80Q385.31 388.03 385.11 388.47Q384.92 388.91 384.92 389.64L384.92 389.64L384.92 404.71Q384.92 405.44 385.11 405.88Q385.31 406.32 385.66 406.55Q386.00 406.79 386.47 406.86Q386.93 406.94 387.46 406.94L387.46 406.94L387.85 406.94L387.85 408.24Z" data-element="slogan" data-text-path="" data-text="LAW FIRM" data-font-family="Noto Serif" fill="#ffffff" fill-opacity="1"></path></g></g></svg>